<?xml version="1.0" encoding="UTF-8"?>
<svg id="Layer_2" data-name="Layer 2" xmlns="http://www.w3.org/2000/svg" xmlns:xlink="http://www.w3.org/1999/xlink" version="1.1" viewBox="0 0 1101.3 938.9">
  <defs>
    <style>
      .cls-1 {
        clip-path: url(#clippath);
      }

      .cls-2, .cls-3, .cls-4, .cls-5 {
        stroke-width: 0px;
      }

      .cls-2, .cls-6 {
        fill: none;
      }

      .cls-7 {
        fill: #fff;
      }

      .cls-7, .cls-8, .cls-9, .cls-10, .cls-11, .cls-6 {
        stroke-miterlimit: 10;
      }

      .cls-7, .cls-6 {
        stroke: #221f1f;
      }

      .cls-8 {
        fill: url(#linear-gradient);
      }

      .cls-8, .cls-9, .cls-10, .cls-11 {
        stroke: #231f20;
      }

      .cls-9 {
        fill: url(#linear-gradient-2);
      }

      .cls-10 {
        fill: url(#linear-gradient-3);
      }

      .cls-11 {
        fill: url(#linear-gradient-4);
      }

      .cls-12 {
        clip-path: url(#clippath-1);
      }

      .cls-3, .cls-4 {
        fill: #000;
      }

      .cls-13 {
        isolation: isolate;
      }

      .cls-4 {
        fill-rule: evenodd;
      }

      .cls-14 {
        display: none;
      }

      .cls-5 {
        fill: #231f20;
      }

      .cls-6 {
        stroke-width: 1.2px;
      }
    </style>
    <symbol id="Grime_Vector_Pack_09" data-name="Grime Vector Pack 09" viewBox="0 0 133.7 125.8">
      <path class="cls-4" d="M35.7,44.4c-.5-.5-1.9-1.3-2.1,0,.6,0,1.7.9,2.1,0ZM133.7,51.7l-118.8-1c.8,2.1,2.6,3,4.9,3.5-1.1-1.7-2.9-2.7-4.9-3.5l118.8,1ZM9.3,102c-.7.9.3,2.3,1.1,2.8,0-1.3.2-2.8-1.1-2.8ZM19.9,113.2c.2,1.1-1.1.8-.7,2.1,1.1.4,1.8-2.5.7-2.1ZM37.8,117.8c0-.4,0-1-.3-1.1-1.6,3.5-5.4,4.7-6,9.1,2.7-1.9,4.1-5.4,6.3-8h0ZM25.8,57.4c-1.7-1.1-3.3-2.3-5.3-3.2.9,1.5,5.1,3.3,5.3,3.2ZM10.7,88.3c0-1.1-.7-1.4-1-2.1-1.3,0-2.1.3-2.1,1.4s1.7.4,1.4,1.8c.9-.8-.3-1,1.7-1.1h0ZM98.6,94.9c.4,0,1.2,1,.3,1.1-1.3-.5-5.5-1.2-3.2-3.2,1.3-.2,1.6,2.3,2.8,1.1-.9-.3-1.5-.8-1.8-1.8.9-.9,2.7-.8,4.2-1.1-.2-5.8,9.4-2.3,10.2-6.3.9-4.9-10.8-3.9-6.7-11.6-.5-.2-.9-.6-1.1-1.1-2.6-.4-3.5.9-6,.7-.2-1.1.7-1.1,0-1.8-1.4.5-2,.9-2.5-.7.6-1.3,3.3-.5,3.5-2.1-4.3.9-9,1.3-8.4-4.2,5.3-2.7,8-8.1,12.7-10.9,2.3-1.4,4.8-2.9,4.9-6-3.5-4.6-6.5,2.2-11.2,1.8-4,1.9-5.7,6.2-10,7.8.6-.6.5-2.6-.7-2.5-1.7.3.2,2.8-.3,2.8-2.1-.2-.9-2.5-1.4-3.9-.8-1.9-2.7-3-1.4-6,.8-.5,2-.6,2.8-1-.4-2,2-5.3-1.1-5.6-.9.5-.5,2.3-1.8,2.5-2.1-5-.4-9.4-1.4-14.8-5-4-4.6,4.2-7.4,5.6,0-1.8.4-1.6.7-3.5-2.3.7,0,5.8-2.8,6-1-2.3-1.2-5.4-4.2-5.6-1.1,2.9,2,4.7,1.8,7,3.8-1.7-.6,4-3.5,3.2-1-.3-.7-1.9-2.5-1.4-.3,2.7,1.1,7.6-3.2,6.3-7.5-7.5-13.7-16.3-16.2-28.8C40.2,14.6,41.5.7,36,0c-4.4-.5-3.6,3.5-2.8,5.6,1.7,4.8,4.1,12.9,5.6,16.5,4.1,9.4,9.5,17.1,7.4,27.1-2.4,5.2-8.7,1.7-12.3-.3-3-1.7-4.1-2.5-4.2-5.6-6-1.4-8.6-8-14.8-8.1,3.8,9.2,13.9,12.1,20,19,0,2.3,1,5.3,0,7.4-2.6-1.4-5.7-2.2-8.1-3.9,1.8,2.8,6.3,3,8.4,5.6-7.2,5-19.3,2-26-1.4-.2-.9,1.7.2,1.4-.7-2.2-.8-2.5,1.3-4.9,1.8,0,.4,0,1-.3,1.1,1.9,6,12.8,3.1,17.2,6.7-.9,0-1.7,0-2.1.3,0,2.4,0,2.9,1,4.6-4.2,2.1-6.1,6.5-10.2,8.8.7.7,2.9-.8,3.5.7-1.4,2.7-5.1,4.8-6,7-2.9,1.4-6.6,2.1-8.8,4.2,5.3-1.1,13.3-4.2,16.5-7.4,2,.5,4.2-.4,4.9,1.8-.7-.3-1.3-.6-2.1-.7-.5.9.8,1.7,0,1.8-2.2,0-1.3,1.7-2.5.3-.8,2.2,3.1,2.4,4.6,3.5-1.1.6-2.9.4-3.2,1.8,3.1-.4,8.6-2.4,13.4-3.9,2.7-.8,7.2-2.4,7.7,1.4.4,2.9-2.9,2.7-3.9,5.3,1.3,1.1,2.2-2.1,3.5-1.1-.6,4.3-4.1,7.6-7.4,10.2-4.7,3.8-11,7.6-9.5,14.4,1.8.6,3.6.9,5.6.4,2.2-3.2,6-6,8.8-9.5,2.2-2.8,3.2-6.8,6.7-6.7-.8,1.2-1.9,2.1-2.1,3.9,3.2-.4,3.5-6.8,7-8.1,1,3.1-3.3,3.9-3.2,7.4,3.4-1.1,3.1-6.1,6.3-7.4,1.7,2.4,4,4.2,5.3,7-.6,4.5-.7,9.1-1,13.7,2.5-2.2.2-9.2,3.2-10.9-.2,3.1-.3,6.1,2.8,6,2.1-.6,1.6-3.8,2.1-6,1.7-1.1,3.2-1.3,5.3-1.4.9-1.9,1.4-4.9,3.5-4.6.2-2.2-.3-2.9,1.1-3.9,3.2.3,4.2,2.8,5.6,4.9,4.9,2.2,7.5,6.6,10.9,10.2.9,3.1,2.1,5.9,4.9,7-.8-5.6-4.3-8.6-3.5-14.1-.7-.8-2.3-.7-3.2-1.4-.5-5-7.6-14.3-1.1-15.8,4-.9,4,1.8,7,2.5.6-.3,1.1-.8,1.4-1.4,2.4.6,3.8,2.1,6.7,2.1-.4-1.2-2-3.4-3.5-2.8h0ZM22.7,95.3c-.7-1.1-.6-2.9.7-4.2,2.2,1.9,5.1-.8,7,0-1.1,2.9-5.3,2.7-7.7,4.2ZM25.1,87.6c.4-.8,1.2-1.1,2.5-1.1-.6.6-1.1,1.3-2.5,1.1ZM29.7,83.7c0,.8,1.5.2,2.1.3-1.2,1.6-4.1,1.5-6.3,2.1-.4-.7-.5-1.7-.7-2.5,1.7-1.3,5.8-4.4,8.1-1.8-.6,1.2-1.7,1.8-3.2,1.9ZM30.1,79.1c-1.2-1.5-2.3-3.1-4.6-3.5-.4-5.9,6.8-4.6,6.7.3.6.8,1.8,1,2.5,1.8-.5,1.6-3.9,0-4.6,1.4h0ZM25.8,107.6c-2.1.8-4,1.9-5.3,3.5,2,.7,5.3-3.6,5.3-3.5ZM38.5,116.4c1.2-.4,1.4-1.9,2.1-2.8-1.3.4-1.4,1.9-2.1,2.8Z"/>
    </symbol>
    <clipPath id="clippath">
      <rect class="cls-2" x="120.3" y="-64.4" width="920.2" height="938.9"/>
    </clipPath>
    <clipPath id="clippath-1">
      <rect class="cls-2" x="74.5" y="27.7" width="895.8" height="842.9"/>
    </clipPath>
    <linearGradient id="linear-gradient" x1="204" y1="908.2" x2="143" y2="562.3" gradientTransform="translate(0 1280.7) scale(1 -1)" gradientUnits="userSpaceOnUse">
      <stop offset="0" stop-color="#fff23a"/>
      <stop offset=".2" stop-color="#fee52c"/>
      <stop offset=".2" stop-color="#fdd41a"/>
      <stop offset=".2" stop-color="#fdc90e"/>
      <stop offset=".3" stop-color="#fdc60b"/>
      <stop offset=".6" stop-color="#fdc710"/>
      <stop offset=".9" stop-color="#d6de27"/>
    </linearGradient>
    <linearGradient id="linear-gradient-2" x1="398.5" y1="896.4" x2="344.3" y2="588.7" gradientTransform="translate(0 1280.7) scale(1 -1)" gradientUnits="userSpaceOnUse">
      <stop offset="0" stop-color="#fff23a"/>
      <stop offset=".2" stop-color="#fee52c"/>
      <stop offset=".2" stop-color="#fdd41a"/>
      <stop offset=".2" stop-color="#fdc90e"/>
      <stop offset=".3" stop-color="#fdc60b"/>
      <stop offset=".6" stop-color="#fdc710"/>
      <stop offset=".9" stop-color="#d6de27"/>
    </linearGradient>
    <linearGradient id="linear-gradient-3" x1="653.4" y1="917.4" x2="591.8" y2="568.1" gradientTransform="translate(0 1280.7) scale(1 -1)" gradientUnits="userSpaceOnUse">
      <stop offset="0" stop-color="#fff23a"/>
      <stop offset=".2" stop-color="#fee52c"/>
      <stop offset=".2" stop-color="#fdd41a"/>
      <stop offset=".2" stop-color="#fdc90e"/>
      <stop offset=".3" stop-color="#fdc60b"/>
      <stop offset=".6" stop-color="#fdc710"/>
      <stop offset=".9" stop-color="#d6de27"/>
    </linearGradient>
    <linearGradient id="linear-gradient-4" x1="932.9" y1="901.8" x2="875.2" y2="574.4" gradientTransform="translate(0 1280.7) scale(1 -1)" gradientUnits="userSpaceOnUse">
      <stop offset="0" stop-color="#fff23a"/>
      <stop offset=".2" stop-color="#fee52c"/>
      <stop offset=".2" stop-color="#fdd41a"/>
      <stop offset=".2" stop-color="#fdc90e"/>
      <stop offset=".3" stop-color="#fdc60b"/>
      <stop offset=".6" stop-color="#fdc710"/>
      <stop offset=".9" stop-color="#d6de27"/>
    </linearGradient>
  </defs>
  <g id="Layer_1-2" data-name="Layer 1-2">
    <g>
      <g>
        <path class="cls-4" d="M800.3,678.9c3-.8,8.5,7.1,2.5,7.4-9.4-3.6-39-8.4-22.2-22.2,9-1.5,11.5,16.3,19.8,7.4-6.3-1.9-10.5-6-12.4-12.4,6.2-6.1,18.9-5.8,29.7-7.4-1.4-40.7,66.4-16.1,71.7-44.5,6.5-34.6-75.7-27.2-47-81.6-3.6-1.4-6-3.9-7.4-7.4-18.6-2.9-24.7,6.6-42,4.9-1.5-7.9,4.6-7.6,0-12.4-9.8,3.7-14.3,6.7-17.3-4.9,3.9-9.3,23.1-3.3,24.7-14.8-30,6.4-63.5,9.4-59.3-29.7,37.2-19.3,56.1-56.8,89-76.6,16.2-9.8,33.9-20.2,34.6-42-24.9-32.6-45.6,15.8-79.1,12.4-29.2,12.8-41.4,42.7-71.7,54.4,4.1-4.4,3.6-18.1-4.9-17.3-12.2,1.9,1.3,19.7-2.5,19.8-14.4-1.5-6.1-17.9-9.9-27.2-5.4-13.2-19-20.9-9.9-42,5.7-3.3,14-4.1,19.8-7.4-3.2-14.1,14.2-37.1-7.4-39.6-6.4,3.5-3.7,16.1-12.4,17.3-15-35.2-2.7-66.1-9.9-103.8-34.9-28.5-32.5,29.6-51.9,39.6,0-12.7,3.2-11.2,4.9-24.7-16.1,4.5-.6,40.6-19.8,42-6.7-16.3-8.5-37.7-29.7-39.5-7.6,20.4,14.4,33.2,12.4,49.4,26.8-11.7-4.3,28.1-24.7,22.2-6.7-2.3-4.7-13.4-17.3-9.9-2.1,19,7.8,53.2-22.3,44.5-52.5-53-96.5-114.5-113.7-202.7-24.3-16.5-15.8-114-54.4-118.7-31.1-3.8-25,24.8-19.8,39.6,12.2,34.1,28.6,90.8,39.6,116.2,28.7,66.2,67.1,120.5,51.9,190.4-17.1,36.5-61.1,11.7-86.5-2.5-21.1-11.7-28.8-17.8-29.7-39.6-42.2-9.8-60.6-56.3-103.8-56.8,26.6,64.8,97.9,85,140.9,133.5-.2,15.9,6.9,37.6,0,51.9-18.2-9.8-40.2-15.8-56.9-27.2,13,19.9,44.5,21.4,59.3,39.5-50.5,35-136.1,14.3-183-9.9-1.8-6.7,11.7,1.8,9.9-5-15.6-5.8-17.6,9.4-34.6,12.4-.4,2.9.4,7-2.5,7.4,13.5,42.5,90.2,21.9,121.1,47-6.1-.3-11.9-.4-14.8,2.5.6,17.3.6,20.5,7.4,32.1-29.7,14.8-43,46-71.7,61.8,5.2,5.1,20.5-5.3,24.7,4.9-10.2,19.2-36.3,33.9-42,49.4-20.5,10-46.3,14.6-61.8,29.7,37-8,93.7-29.2,116.2-51.9,13.8,3.6,29.2-3,34.6,12.4-4.6-2-9.1-4.1-14.8-4.9-3.2,6.1,5.5,12,0,12.4-15.8,0-8.9,11.9-17.3,2.5-5.5,15.2,22,17.1,32.1,24.7-7.4,4.1-20.2,2.9-22.3,12.4,21.8-2.9,60.8-16.8,94-27.2,19.1-6,50.8-16.9,54.4,9.9,2.8,20.4-20.4,19.1-27.2,37.1,8.9,7.5,15.9-14.9,24.7-7.4-4,30.6-28.8,53.1-51.9,71.7-33.3,26.8-77.1,53.5-66.8,101.3,12.4,4.5,25.1,6,39.6,2.5,15.4-22.9,42.4-42.1,61.8-66.7,15.3-19.4,22.7-47.8,47-47-5.3,8.7-13.2,14.8-14.8,27.2,22.7-3.1,24.5-47.9,49.5-56.9,6.7,22-23.1,27.7-22.3,51.9,24.2-8,21.7-42.6,44.5-51.9,11.7,17.1,28,29.7,37.1,49.4-4,31.5-5.1,63.9-7.4,96.4,17.4-15.6,1.5-64.4,22.3-76.6-1.1,21.7-1.9,43.1,19.8,42,14.8-4.2,11.3-26.7,14.8-42,12-8,22.4-9,37.1-9.9,6.3-13.1,10.1-34.7,24.7-32.1,1.5-15.4-2.1-20.6,7.4-27.2,22.6,2.1,29.6,19.8,39.6,34.6,34.2,15.2,52.5,46.4,76.7,71.7,6.5,21.6,14.6,41.4,34.6,49.4-5.6-39.5-30.3-60.8-24.7-98.9-5.1-5.7-16.4-5-22.3-9.9-3.3-35.3-53.5-100.4-7.4-111.2,28.2-6.7,28.2,12.6,49.5,17.3,4.5-2.1,7.7-5.4,9.9-9.9,16.7,3.9,26.6,14.6,47,14.8-5.2-8.8-16.6-24.5-27.2-19.8Z"/>
        <path class="cls-4" d="M266.2,681.4c-5-7.5-4.5-20.2,5-29.7,15.2,13.4,35.6-5.7,49.5,0-7.5,20.6-37.1,18.9-54.4,29.7Z"/>
        <path class="cls-4" d="M283.5,627c2.5-5.7,8.5-8,17.3-7.4-4.5,3.8-7.6,8.9-17.3,7.4Z"/>
        <path class="cls-4" d="M315.7,599.8c.3,5.5,10.5,1.1,14.8,2.5-8.6,11.2-29.2,10.4-44.5,14.8-2.7-4.7-3.2-11.7-4.9-17.3,11.8-9.1,41.1-30.8,56.9-12.4-4.3,7.2-11.6,11.5-22.3,12.4Z"/>
        <path class="cls-4" d="M318.1,567.7c-8.6-10.3-16-22-32.1-24.7-2.6-41.4,48-32.5,47,2.5,4.1,5.8,12.7,7,17.3,12.4-3.1,11-27.2.8-32.1,9.9Z"/>
      </g>
      <g class="cls-13">
        <path class="cls-5" d="M95.9,387.7h240.5c0-.1,4.8,41.6,4.8,41.6-53.7,75.8-127,155.6-186.7,212.5v1.6c74.9-16.5,146.3-18.9,146.3-18.9l-11.6,87.8c-32.1-6.8-99-8.8-127.9-8.8s-57.3,2.4-75.7,4.8l-20.4,16.4s-22.4-6-26.9-39.3c0,0,21.6-13.2,42.5-22.1,70.9-76.2,126.2-155.2,159.8-217.7l-159.5,20.7,14.8-78.6h0Z"/>
        <path class="cls-5" d="M311.3,705.1c39.6-152,55.9-317.5,55.9-317.5h94.6s-45.6,210-90.4,317.5h-60.1Z"/>
        <path class="cls-5" d="M680.4,704.9c16-61.7,28.4-125.9,37.2-180.4h-2c-31.6,62.1-69.3,131.9-101.3,180.4h-61.7c0-13.2-1.3-106.2-10.5-176.7h-1.6c-16,60.9-36.4,129.1-56,176.8h-44.1c39.6-151.9,55.9-317.5,55.9-317.5h124.6c0-.1,6.5,123.3,6.9,199.9h1.6c48.4-109,82.5-200,82.5-200h119c0-.1-45.6,209.9-90.4,317.4h-60.1Z"/>
        <path class="cls-5" d="M756.2,704.8c65.3-88.6,135.8-230.5,156.9-317.5h107.8c-3.6,42.4-5.2,86.5-5.1,129.4,0,70.5,4.1,137.1,8.9,188h-88.2c-1.6-20.4-2.4-39.7-2.8-58.1h-80.6c-14.8,28.1-27.2,48.5-33.2,58.1h-63.7ZM939.2,453.8h-2c-17.2,50.1-37.2,98.2-56.8,138.3l52.9-7.6c.7-41.3,3.1-82.2,5.9-130.7h0Z"/>
      </g>
      <g class="cls-13">
        <path class="cls-6" d="M95.9,387.7h240.5c0-.1,4.8,41.6,4.8,41.6-53.7,75.8-127,155.6-186.7,212.5v1.6c74.9-16.5,146.3-18.9,146.3-18.9l-11.6,87.8c-32.1-6.8-99-8.8-127.9-8.8s-57.3,2.4-75.7,4.8l-20.4,16.4s-22.4-6-26.9-39.3c0,0,21.6-13.2,42.5-22.1,70.9-76.2,126.2-155.2,159.8-217.7l-159.5,20.7,14.8-78.6h0Z"/>
        <path class="cls-6" d="M311.3,705.1c39.6-152,55.9-317.5,55.9-317.5h94.6s-45.6,210-90.4,317.5h-60.1Z"/>
        <path class="cls-6" d="M680.4,704.9c16-61.7,28.4-125.9,37.2-180.4h-2c-31.6,62.1-69.3,131.9-101.3,180.4h-61.7c0-13.2-1.3-106.2-10.5-176.7h-1.6c-16,60.9-36.4,129.1-56,176.8h-44.1c39.6-151.9,55.9-317.5,55.9-317.5h124.6c0-.1,6.5,123.3,6.9,199.9h1.6c48.4-109,82.5-200,82.5-200h119c0-.1-45.6,209.9-90.4,317.4h-60.1Z"/>
        <path class="cls-6" d="M756.2,704.8c65.3-88.6,135.8-230.5,156.9-317.5h107.8c-3.6,42.4-5.2,86.5-5.1,129.4,0,70.5,4.1,137.1,8.9,188h-88.2c-1.6-20.4-2.4-39.7-2.8-58.1h-80.6c-14.8,28.1-27.2,48.5-33.2,58.1h-63.7ZM939.2,453.8h-2c-17.2,50.1-37.2,98.2-56.8,138.3l52.9-7.6c.7-41.3,3.1-82.2,5.9-130.7h0Z"/>
      </g>
      <path class="cls-3" d="M613.1,561.2c-5.6,84.5-202.7,124-218.9,127.2-42.2,8.4-181.7,36.3-224.4-29.4-29.6-45.5-6-125.5,4.6-161.2,6.4-21.5,10.9-31.4,17.4-43.3,28.6-52.1,130-53.6,188.7-46.1,101.4,13,237.5,81,232.7,152.9h-.1Z"/>
      <g class="cls-14">
        <g class="cls-1">
          <g class="cls-12">
            <use width="133.7" height="125.8" transform="translate(74.5 27.4) scale(6.7)" xlink:href="#Grime_Vector_Pack_09"/>
          </g>
        </g>
      </g>
      <g>
        <path class="cls-8" d="M78.4,393.1h242.4c0-.1,4.9,38,4.9,38-54.1,69.3-128,142.4-188.2,194.5v1.5c75.6-15.1,147.5-17.3,147.5-17.3l-11.7,80.3c-32.3-6.2-99.8-8-128.9-8s-57.8,2.2-76.4,4.5l-20.6,15s-22.6-5.5-27.1-35.9c0,0,21.8-12.1,42.8-20.2,71.5-69.7,127.2-142,161.1-199.2l-160.7,18.7,14.9-71.9h0Z"/>
        <path class="cls-9" d="M295.5,683.4c39.9-139,56.4-290.5,56.4-290.5h95.4s-46,192.2-91.1,290.5h-60.7,0Z"/>
        <path class="cls-10" d="M667.6,683.2c16.1-56.5,28.6-115.2,37.5-165.1h-2c-31.9,56.9-69.8,120.7-102.1,165.1h-62.2c0-12.1-1.3-97.2-10.6-161.7h-1.6c-16.1,55.8-36.7,118.1-56.5,161.8h-44.4c39.9-139,56.4-290.5,56.4-290.5h125.7c0-.1,6.5,112.9,7,182.9h1.6c48.8-99.8,83.1-183.1,83.1-183.1h120c0-.1-46,192.1-91.2,290.4l-60.7.2h0Z"/>
        <path class="cls-11" d="M744,683.2c65.8-81.1,136.9-211,158.2-290.6h108.7c-3.6,38.8-5.2,79.1-5.2,118.4,0,64.5,4.1,125.4,9,172h-88.9c-1.6-18.7-2.4-36.3-2.9-53.2h-81.2c-14.9,25.7-27.5,44.4-33.5,53.2l-64.2.2h0ZM928.5,453.5h-2c-17.3,45.8-37.5,89.9-57.3,126.6l53.3-7c.8-37.8,3.2-75.2,6-119.6Z"/>
      </g>
      <g id="ZIMA_Logo" data-name="ZIMA Logo">
        <g>
          <path class="cls-5" d="M884.1,720.8c-1.7,1.2-3.5,1.9-5.5,1.9s-1.8,0-2.9-.3c-1.8.6-3.5,1.2-5,1.8-3.6,1.4-6.8,2.6-7.5,3.5-3.3,4.2-6,14.6-9.5,23.3.5-.3,1.5-.5,3-.8,1.3-1.4,2.8-2.1,4.5-2.1s3.4.9,4.9,2.7,2,3.6,1.3,5.4c-.2.5-.5.9-.8,1.4-1.5,2-3.2,3.2-4.9,3.7-1,.3-2.4.4-4.1.2s-2.9,0-3.5,0c-1.7.7-3.8,1.6-6.2,2.5-2.5,5.9-3.9,9.7-4.2,11.4,2.9-.7,5.4-1.4,7.6-2.3.5-.5,1-.9,1.5-1.3.9-.7,2.2-1,3.7-.9,1.7,0,3.1,1.2,4.2,3.1,1.1,2,1.3,4,.6,6-.6,1.8-1.8,3.1-3.6,3.9-1.8.8-4.3,1.1-7.7.9-4.3,1.8-6.4,2.8-10.8,4.6-.5.2-1.5.8-3.2,2-1.3.8-2.3,1.3-3.1,1.3h-.8c-3.1-1-5.2-3.8-6.2-8.1,0-.3,0-.7.2-1.2,0-.2,1-1.5,2.7-3.9,8.1-20.5,17.8-40.2,25.8-60.8-.2-.7,0-1.3,0-2,.7-2.2,2.8-3.5,6.4-4.1.8,0,1.7,0,2.5.7.6.4,1.2.9,1.7,1.3,4.5-1.5,6.7-2.3,11-3.8.2,0,1-.5,2.2-1.2.8-.5,1.7-.8,2.7-.8s.9,0,1.5.2c1.1.3,2.1,1.4,2.8,3.4s.8,3.9.3,5.7c-.3,1.3-.9,2.1-1.7,2.7h0Z"/>
          <path class="cls-5" d="M909.1,783.6c-.5,1.4-1.7,2.7-3.7,3.7s-4,1.5-6.2,1.5c-3.2,0-5.1-1-5.7-3.1,2.8-9,8-30.7,8-30.7-1.1-.5-14.2,18-20.4,27.1-.6,2-1.2,4-1.8,5.9-.7,2.3-1.8,4-3.3,5s-2.9,1.5-4.3,1.5c-2.3,0-4.5-1.3-6.4-3.8-.6-.7.5-5.6,3.8-14.9,1.2-2.9,9.2-24.1,12-31.7.2-.6.5-1.4.7-2.4s.5-1.8.6-2.2c.4-1.2,1.1-2.3,2-3.2,1.1-1.2,2.4-1.8,3.9-1.8s3,.5,4.4,1.6,2.1,2.1,2.1,3.1,0,1.3-.3,2-.8,1.6-1.6,2.8c-.9,1.2-1.5,2.2-1.7,3-1.9,5.4-2.9,8.1-4.8,13.6,7-8.8,11.8-14.6,14.6-17.4,4.9-4.9,9.3-7.1,13.4-6.8,2.4.2,3.5,2.8,3.1,7.9-.3,3.8-1.5,9.5-3.8,16.9-1.8,5.9-4.5,12.5-5.2,17.7,0,.4.2,1.3.7,2.5.2.3.2,1.2,0,2.2h0Z"/>
          <path class="cls-5" d="M953.8,779.6c-.8,2.5-2.8,5.2-6,8-.5.7-2.4,1.7-5.6,2.9-3.7,1.4-6.8,2-9.4,1.8-4.8-.4-8.4-3.2-10.3-8.5-1.8-4.9-1.8-11-.4-18.2,1.6-7.8,4.3-14.6,8-20.5,4.1-6.5,8.4-10.1,13.2-10.9.9,0,1.8-.2,2.7-.2,6.9,0,10.2,4.8,9.6,14.4-.3,4.4-2.5,9.2-6.9,14.5-4.8,5.7-10.5,9.8-17.2,12.1.3,2.6.5,4.3.8,5.2.7,1.7,1.8,2.5,3.3,2.5s3.1-.6,4.9-1.8c1.5-1,2.6-1.9,3.2-2.9.3,0,.6-.9,1.1-2.2s1.2-2.3,2.4-2.9c.4-.2.8-.3,1.3-.3,1.5,0,2.8.8,4.1,2.3s1.7,3.1,1.2,4.7h0ZM944.4,744.7c-2.4,0-4.6,1.9-6.7,5.7-2.8,5-4.6,10-5.1,14.8,3.1-1,6.2-3.3,9.2-6.9,3-3.6,4.8-6.9,5.2-9.7.4-2.6-.5-3.9-2.6-3.9h0Z"/>
          <path class="cls-5" d="M999.2,739.4c-.3,1.4-1.5,2.3-3.5,2.9-2.4.6-3.9,1.4-4.6,2.3-6.2,7.5-9.5,11.2-16.3,18.7-.6,6-.9,9-1.3,15.1,0,1.5.2,2.9.9,4.4s1.1,2.6,1,3.4-.3,1.7-.8,2.7c-1.2,2.5-3.5,3.8-6.8,3.8s-4.2-.8-5.5-2.3c-.9-1-1.2-2.2-1.1-3.8,0-.5.2-1.4.4-2.6.2-1.2.4-2.2.4-2.9,1.1-12.4,2.8-24.7,4.2-37.1,0-.6,0-1.3-.5-2.2-.4-.8-.5-1.5-.5-2.1s.2-.9.5-1.4c.9-1.6,3.3-2.4,7.3-2.4s4.8.8,5.1,2.5c0,.7.2,1.2,0,1.7,0,.7-.3,1.3-.8,1.7s-.8.8-.8,1.2v3.6c3.4-3.6,5-5.4,8.3-9,.9-1.1,1.9-2.3,2.9-3.4,1-1.1,2.1-1.8,3.4-1.9,2-.2,3.8.3,5.6,1.5s2.7,2.7,2.6,4.7c0,.2,0,.6,0,.9h0Z"/>
          <path class="cls-5" d="M1031.7,737.2c1.7,7.8,1,18.8,1.4,28.2.4,9.2.8,15.8,1.1,19.8.6,8.8.7,14.8-.2,17.9-.9,3.2-3.5,4.9-7.7,5.2-5.3.4-10.3-1-14.7-4.2-2.1-.6-3.4-1.1-3.9-1.4-1.2-.7-2-1.8-2.5-3.4-.8-3.1,1.6-4.7,7-4.7s2.7.2,3.9.5c.9.2,2,1,3.2,2.3,1.2,1.4,2.4,2.1,3.4,2.2,1.9,0,2.5-2.6,2.1-8.2-.2-2.4-.6-6.3-1-11.7-2.2,4-3.7,6.7-4.7,7.9-2,2.3-4.5,3.4-7.3,3.4-4,0-7.4-2.9-9.8-8.6-2.2-5.2-3-11.6-2.7-19.1.4-7.7,1.9-14.2,4.2-19.5,2.7-6,6-9,10.3-9.2,2.3,0,4,.5,5.2,1.6,1.1,1.1,2.2,2.3,3.3,3.5-.8-2.4-.7-4.2.4-5.4.6-.7,1.6-1.1,2.8-1.1s2.4.4,3.7,1.1c1.2,1,2.3,2,2.5,2.9h0ZM1021.2,762.6c.3-3.8,0-7.5-1.2-11-1.2-3.8-2.7-5.8-4.6-5.8s-2.9,1.9-4.2,5.8c-1.2,3.5-1.9,7.1-2.2,10.9-.3,4,0,7.7.6,10.9.8,3.8,2.1,5.8,3.7,5.8s3-1.9,4.8-5.6c1.8-3.6,2.8-7.3,3.1-11h0Z"/>
          <path class="cls-5" d="M1080.9,740.4c.3,1.3.2,2.8-.3,4.3-1.1,2.5-1.6,3.9-1.7,4.1-2.8,10.7-5.8,21.4-8.7,32.2-1.7,7.1-2.4,13.4-2,19.1,0,.5.2,1.7.6,3.5.4,1.5.4,2.6,0,3.3-.8,1.4-2.2,2.1-4.3,2.1-3.8,0-6.6-1.5-8.3-4.3-.4-.7-.7-1.4-.8-1.9,0-.7,0-1.4.4-2.2s.6-1.5.7-2c0-5,.3-7.5.7-12.5-5.7-13.6-10.8-27.4-15.7-41.3-.2-.5-.7-1.6-1.6-3.3-.6-1.2-.9-2.2-.9-3.1v-1.4c.4-2.4,2.3-3.6,5.7-3.6s3.8.4,5.1,1.2c1.5,1,2.6,2.8,3,5.3.7,4.1,1,6.4,1.1,6.9,2.9,8.3,4.3,12.4,7.3,20.7,3-10.3,4.6-15.5,7.1-25.8,0-.2.2-1.7.3-4.4,0-1.7.6-2.8,1.4-3.4.5-.4,1.2-.6,1.9-.6,1.7,0,3.5.7,5.3,2.1,1.9,1.4,3.1,3.1,3.6,5h.1Z"/>
        </g>
      </g>
      <polyline class="cls-7" points="1016.9 324.8 852.7 507.2 904.9 575.4 764 769.3 970.9 584.5 933.3 498.3"/>
    </g>
  </g>
</svg>