<svg width="905" height="801" viewBox="0 0 905 801" fill="none" xmlns="http://www.w3.org/2000/svg">
<path d="M65.4954 386.081L270.39 385.996L274.48 421.522C228.73 486.1 166.282 554.086 115.42 602.562V603.926C179.231 589.868 240.061 587.824 240.061 587.824L230.178 662.625C202.83 656.832 145.835 655.128 121.213 655.128C94.8879 655.128 72.3963 657.173 56.7203 659.217L39.3404 673.189C39.3404 673.189 20.2566 668.078 16.4229 639.708C16.4229 639.708 34.8251 628.462 52.6309 620.879C113.034 555.961 160.148 488.656 188.773 435.409L52.8865 453.044L65.4954 386.081Z" fill="#231F20"/>
<path d="M249.007 656.491C282.744 526.994 296.631 385.996 296.631 385.996H377.226C377.226 385.996 338.377 564.906 300.209 656.491H249.007Z" fill="#231F20"/>
<path d="M563.463 656.321C577.094 603.755 587.659 549.06 595.156 502.628H593.452C566.53 555.535 534.412 615.001 507.149 656.321H454.583C454.583 645.075 453.476 565.843 445.638 505.781H444.275C430.644 557.665 413.264 615.768 396.565 656.406H358.994C392.732 526.994 406.618 385.911 406.618 385.911L512.772 385.825C512.772 385.825 518.31 490.957 518.65 556.216H520.014C561.248 463.353 590.3 385.825 590.3 385.825L691.682 385.74C691.682 385.74 652.833 564.651 614.666 656.236L563.463 656.321Z" fill="#231F20"/>
<path d="M628.038 656.236C683.671 580.753 743.734 459.86 761.71 385.74L853.55 385.655C850.483 421.863 849.12 459.434 849.205 495.983C849.205 556.046 852.698 612.786 856.788 656.151H781.646C780.282 638.771 779.601 622.328 779.26 606.652H710.592C697.984 630.592 687.419 647.972 682.308 656.151L628.038 656.236ZM783.946 442.395H782.242C767.588 485.078 750.549 526.057 733.851 560.221L778.919 553.746C779.516 518.56 781.56 483.715 783.946 442.395Z" fill="#231F20"/>
<path d="M65.4954 386.081L270.39 385.996L274.48 421.522C228.73 486.1 166.282 554.086 115.42 602.562V603.926C179.231 589.868 240.061 587.824 240.061 587.824L230.178 662.625C202.83 656.832 145.835 655.128 121.213 655.128C94.8879 655.128 72.3963 657.173 56.7203 659.217L39.3404 673.189C39.3404 673.189 20.2566 668.078 16.4229 639.708C16.4229 639.708 34.8251 628.462 52.6309 620.879C113.034 555.961 160.148 488.656 188.773 435.409L52.8865 453.044L65.4954 386.081Z" stroke="#221F1F" stroke-width="1.25" stroke-miterlimit="10"/>
<path d="M249.007 656.491C282.744 526.994 296.631 385.996 296.631 385.996H377.226C377.226 385.996 338.377 564.906 300.209 656.491H249.007Z" stroke="#221F1F" stroke-width="1.25" stroke-miterlimit="10"/>
<path d="M563.463 656.321C577.094 603.755 587.659 549.06 595.156 502.628H593.452C566.53 555.535 534.412 615.001 507.149 656.321H454.583C454.583 645.075 453.476 565.843 445.638 505.781H444.275C430.644 557.665 413.264 615.768 396.565 656.406H358.994C392.732 526.994 406.618 385.911 406.618 385.911L512.772 385.825C512.772 385.825 518.31 490.957 518.65 556.216H520.014C561.248 463.353 590.3 385.825 590.3 385.825L691.682 385.74C691.682 385.74 652.833 564.651 614.666 656.236L563.463 656.321Z" stroke="#221F1F" stroke-width="1.25" stroke-miterlimit="10"/>
<path d="M628.038 656.236C683.671 580.753 743.734 459.86 761.71 385.74L853.55 385.655C850.483 421.863 849.12 459.434 849.205 495.983C849.205 556.046 852.698 612.786 856.788 656.151H781.646C780.282 638.771 779.601 622.328 779.26 606.652H710.592C697.984 630.592 687.419 647.972 682.308 656.151L628.038 656.236ZM783.946 442.395H782.242C767.588 485.078 750.549 526.057 733.851 560.221L778.919 553.746C779.516 518.56 781.56 483.715 783.946 442.395Z" stroke="#221F1F" stroke-width="1.25" stroke-miterlimit="10"/>
<mask id="mask0_318_87" style="mask-type:luminance" maskUnits="userSpaceOnUse" x="86" y="0" width="785" height="801">
<path d="M870.251 0.91333L86.2822 0.91333L86.2822 800.813L870.251 800.813L870.251 0.91333Z" fill="white"/>
</mask>
<g mask="url(#mask0_318_87)">
<g clip-path="url(#clip0_318_87)">
<path fill-rule="evenodd" clip-rule="evenodd" d="M288.431 337.141C285.586 334.295 277.618 329.742 276.48 337.141C279.895 336.572 286.155 342.263 288.431 337.141ZM170.057 372.994C174.61 384.946 184.854 390.068 197.944 392.913C191.683 383.238 181.44 377.547 170.057 372.994ZM138.188 664.946C134.204 670.068 139.895 678.035 144.448 680.881C143.879 673.482 145.586 664.946 138.188 664.946ZM198.513 728.685C199.651 734.946 192.253 733.238 194.529 740.637C200.789 742.913 204.773 726.409 198.513 728.685ZM300.383 754.864C299.814 752.588 300.952 749.173 298.675 748.604C289.57 768.523 267.944 775.352 264.529 800.393C279.895 789.58 287.862 769.661 300.383 754.864ZM232.09 411.124C222.415 404.864 213.309 398.035 201.927 392.913C207.049 401.45 230.952 411.694 232.09 411.124ZM146.155 586.978C146.155 580.718 142.171 579.011 140.464 575.027C133.066 574.458 128.513 576.734 128.513 582.994C129.082 588.685 138.188 585.271 136.48 593.238C141.602 588.685 134.773 587.547 146.155 586.978ZM646.399 624.539C648.675 623.97 653.228 630.23 648.106 630.799C640.708 627.954 616.805 623.97 629.895 612.588C637.293 611.45 639 625.677 645.83 618.848C640.708 617.141 637.293 614.295 635.586 608.604C640.708 603.482 650.952 604.051 659.488 602.344C658.35 569.336 712.984 589.255 717.537 566.49C722.659 538.604 656.074 544.295 679.407 500.474C676.561 499.336 674.285 497.059 673.147 494.214C658.35 491.937 653.228 499.336 639 498.198C637.862 491.937 642.984 491.937 639 487.954C631.033 490.799 627.618 493.076 624.773 483.97C628.187 476.572 643.553 481.124 644.691 472.019C620.22 477.141 593.472 479.417 596.887 448.116C627.049 432.75 642.415 402.019 669.163 386.084C682.252 378.116 696.48 369.58 697.049 351.937C677.13 325.759 660.057 364.458 633.309 362.181C610.545 372.994 600.87 397.466 576.399 406.572C579.813 403.157 579.244 391.775 572.415 392.344C562.74 394.051 573.553 408.279 570.708 408.279C558.757 407.141 565.586 394.051 562.74 386.084C558.187 375.271 547.374 369.011 554.773 351.937C559.326 349.092 566.155 348.523 570.708 346.246C568.431 334.864 582.09 316.084 564.448 314.377C559.326 317.222 561.602 327.466 554.204 328.604C542.252 300.149 551.927 275.108 546.236 244.377C517.781 221.612 520.057 268.279 504.122 276.246C504.122 266.003 506.399 267.141 508.106 256.328C495.017 260.312 507.537 289.336 492.171 290.474C486.48 277.385 485.342 259.742 468.269 258.604C462.009 275.108 479.651 285.352 478.513 298.442C500.139 288.767 475.098 321.206 458.594 316.653C452.903 314.946 454.61 305.84 444.366 308.685C442.659 324.051 450.627 351.937 426.155 344.539C383.472 301.856 348.188 251.775 333.96 180.637C314.041 167.547 321.44 88.4416 290.139 84.4579C265.098 81.6124 269.651 104.377 274.204 116.328C283.879 143.645 297.537 189.742 306.074 210.23C329.407 263.726 360.139 307.547 348.188 364.458C334.529 394.051 298.675 374.133 278.188 362.751C261.114 353.076 254.854 348.523 254.285 330.881C220.139 322.913 205.342 285.352 170.057 284.783C191.683 337.141 249.163 353.645 283.879 392.913C283.879 406.003 289.57 423.076 283.879 435.027C269.082 427.059 251.44 422.507 237.781 412.832C248.025 428.767 273.635 429.905 285.586 444.702C244.61 473.157 175.749 456.084 137.618 436.734C136.48 431.612 147.293 437.872 145.586 432.75C133.066 428.198 131.358 440.149 117.7 442.994C117.7 445.271 118.269 448.685 115.992 449.255C126.805 483.401 188.838 466.897 213.879 487.385C208.757 486.816 204.204 486.816 201.927 489.092C202.496 502.75 202.496 505.596 207.618 515.271C183.716 527.222 172.903 552.263 149.57 565.352C153.553 569.336 166.074 560.799 169.488 569.336C161.521 584.702 140.464 596.653 135.342 609.173C118.838 617.141 97.7811 621.124 85.2607 633.076C115.423 626.815 160.952 609.173 179.163 590.962C190.545 593.807 203.066 588.685 207.049 601.206C203.066 599.498 199.651 597.791 195.098 597.222C192.253 602.344 199.651 606.897 195.098 607.466C182.578 607.466 187.7 617.141 180.87 609.173C176.318 621.694 198.513 622.832 207.049 629.092C200.789 632.507 190.545 631.368 188.838 639.336C206.48 637.059 237.781 625.677 265.098 617.141C280.464 612.588 306.074 603.482 308.919 625.108C311.196 641.612 292.415 640.474 286.724 655.271C294.122 661.531 299.244 643.32 306.643 649.011C303.228 673.482 283.309 692.263 264.529 707.059C237.781 728.685 201.927 750.311 210.464 789.011C220.708 792.425 230.952 794.133 242.334 791.287C254.854 773.076 276.48 757.141 292.415 737.222C304.935 721.287 310.627 698.523 330.545 699.092C325.992 705.921 319.732 711.043 318.594 721.287C336.805 719.011 338.513 682.588 358.431 675.189C364.122 692.832 339.651 697.385 340.22 717.303C359.57 711.043 357.862 682.588 376.074 675.189C385.748 688.848 398.838 699.092 406.236 715.027C402.822 740.637 402.253 766.815 400.545 792.994C414.773 780.474 401.683 740.637 418.757 730.962C417.618 748.604 417.049 765.677 434.692 765.108C446.643 761.693 443.797 743.482 446.643 730.962C456.318 724.702 464.854 723.563 476.805 722.994C481.927 712.181 484.773 695.108 496.724 696.815C497.862 684.295 495.017 680.311 502.984 674.62C521.196 676.328 526.887 690.555 534.854 702.507C562.74 715.027 577.537 740.068 596.887 760.555C602.009 778.198 608.838 794.132 624.773 800.393C620.22 768.523 600.301 751.45 604.854 720.149C600.87 715.596 591.765 716.165 586.643 712.181C583.797 683.726 543.391 630.799 580.383 622.263C603.147 617.141 603.147 632.507 620.22 636.49C623.635 634.783 626.48 631.937 628.187 628.523C641.846 631.937 649.813 640.474 666.317 640.474C664.041 633.645 654.935 621.124 646.399 624.539ZM214.448 626.816C210.464 620.555 211.033 610.311 218.431 602.913C230.952 613.726 247.456 598.36 258.269 602.913C252.009 619.417 228.106 618.279 214.448 626.816ZM228.106 582.994C230.383 578.441 234.935 576.734 242.334 576.734C238.919 580.149 236.074 584.133 228.106 582.994ZM254.285 560.799C254.285 565.352 262.822 561.937 266.236 562.507C259.407 571.612 242.903 571.043 230.383 574.458C228.106 570.474 227.537 564.783 226.399 560.23C236.074 552.832 259.407 535.19 272.496 549.986C269.082 556.816 262.822 560.23 254.285 560.799ZM256.561 534.62C249.732 526.084 243.472 516.978 230.383 514.702C228.106 481.124 269.082 488.523 268.513 516.409C271.927 520.962 278.757 522.1 282.74 526.653C279.895 535.759 260.545 527.222 256.561 534.62ZM232.09 696.815C220.139 701.368 209.326 707.628 201.927 716.734C213.309 720.718 232.09 696.246 232.09 696.815ZM304.366 746.897C311.196 744.62 312.334 736.084 316.318 730.962C308.919 733.238 308.35 741.775 304.366 746.897Z" fill="black"/>
</g>
</g>
<path d="M50.5855 390.682L257.099 390.597L261.274 423.057C215.183 482.097 152.224 544.375 100.936 588.762V590.04C165.344 577.175 226.599 575.301 226.599 575.301L216.631 643.713C189.113 638.431 131.606 636.897 106.814 636.897C80.3187 636.897 57.5715 638.772 41.7251 640.731L24.1749 653.51C24.1749 653.51 4.92071 648.825 1.08691 622.925C1.08691 622.925 19.6595 612.617 37.5506 605.716C98.4653 546.334 145.919 484.738 174.8 436.006L37.8913 451.938L50.5855 390.682Z" fill="url(#paint0_linear_318_87)" stroke="#231F20" stroke-miterlimit="10"/>
<path d="M235.545 638.005C269.538 519.583 283.595 390.512 283.595 390.512H364.872C364.872 390.512 325.682 554.258 287.259 638.005H235.545Z" fill="url(#paint1_linear_318_87)" stroke="#231F20" stroke-miterlimit="10"/>
<path d="M552.557 637.835C566.273 589.699 576.922 539.689 584.505 497.177H582.801C555.624 545.653 523.334 600.008 495.816 637.835H442.825C442.825 627.526 441.717 555.025 433.794 500.074H432.431C418.714 547.613 401.164 600.689 384.296 637.92H346.469C380.462 519.498 394.519 390.427 394.519 390.427L501.61 390.342C501.61 390.342 507.147 486.613 507.573 546.249H508.936C550.512 461.224 579.734 390.257 579.734 390.257L681.968 390.171C681.968 390.171 642.778 553.917 604.27 637.664L552.557 637.835Z" fill="url(#paint2_linear_318_87)" stroke="#231F20" stroke-miterlimit="10"/>
<path d="M617.646 637.835C673.705 568.741 734.279 458.072 752.426 390.257L845.033 390.171C841.966 423.312 840.603 457.646 840.603 491.128C840.603 546.079 844.096 597.963 848.27 637.664H772.532C771.169 621.733 770.487 606.738 770.061 592.34H700.882C688.188 614.235 677.454 630.167 672.342 637.664L617.646 637.835ZM774.832 442.141H773.128C758.389 481.16 741.18 518.731 724.311 549.998L769.72 544.034C770.402 511.83 772.447 479.967 774.832 442.141Z" fill="url(#paint3_linear_318_87)" stroke="#231F20" stroke-miterlimit="10"/>
<path d="M737.005 669.868C735.557 670.89 734.023 671.487 732.319 671.487C731.638 671.487 730.786 671.401 729.848 671.231C728.315 671.742 726.867 672.253 725.589 672.765C722.522 673.957 719.795 674.98 719.199 675.746C716.388 679.325 714.087 688.185 711.105 695.597C711.531 695.341 712.383 695.171 713.661 694.915C714.769 693.723 716.047 693.126 717.495 693.126C718.943 693.126 720.392 693.893 721.67 695.427C722.948 696.96 723.374 698.494 722.777 700.027C722.607 700.453 722.351 700.794 722.096 701.22C720.818 702.924 719.369 703.946 717.921 704.372C717.069 704.628 715.876 704.713 714.428 704.543C712.98 704.372 711.957 704.457 711.446 704.628C709.998 705.224 708.209 705.991 706.164 706.758C704.034 711.784 702.841 715.022 702.586 716.47C705.057 715.874 707.186 715.277 709.061 714.51C709.487 714.084 709.913 713.744 710.339 713.403C711.105 712.806 712.213 712.551 713.491 712.636C714.939 712.721 716.132 713.658 717.069 715.277C718.006 716.981 718.177 718.685 717.58 720.389C717.069 721.922 716.047 723.03 714.513 723.712C712.98 724.393 710.85 724.649 707.953 724.478C704.29 726.012 702.501 726.864 698.752 728.397C698.326 728.568 697.474 729.079 696.026 730.101C694.918 730.783 694.066 731.209 693.385 731.209C693.129 731.209 692.959 731.209 692.703 731.123C690.062 730.272 688.273 727.886 687.421 724.223C687.336 723.967 687.421 723.626 687.592 723.2C687.677 723.03 688.443 721.922 689.892 719.878C696.793 702.413 705.057 685.629 711.872 668.079C711.702 667.482 711.787 666.971 711.957 666.375C712.554 664.501 714.343 663.393 717.41 662.882C718.091 662.797 718.858 662.967 719.54 663.478C720.051 663.819 720.562 664.245 720.988 664.586C724.822 663.308 726.696 662.626 730.36 661.348C730.53 661.263 731.212 660.922 732.234 660.326C732.916 659.9 733.682 659.645 734.534 659.645C734.875 659.645 735.301 659.73 735.812 659.815C736.749 660.071 737.601 661.008 738.198 662.712C738.794 664.415 738.879 666.034 738.453 667.568C738.198 668.675 737.686 669.357 737.005 669.868Z" fill="#231F20"/>
<path d="M758.304 723.37C757.878 724.563 756.856 725.671 755.152 726.523C753.448 727.375 751.744 727.801 749.87 727.801C747.143 727.801 745.525 726.949 745.014 725.16C747.399 717.492 751.829 699.005 751.829 699.005C750.892 698.579 739.732 714.34 734.449 722.093C733.938 723.796 733.427 725.5 732.916 727.119C732.32 729.079 731.382 730.527 730.104 731.379C728.827 732.231 727.634 732.657 726.441 732.657C724.482 732.657 722.607 731.549 720.989 729.419C720.477 728.823 721.414 724.648 724.226 716.725C725.248 714.255 732.064 696.193 734.449 689.718C734.62 689.207 734.875 688.526 735.046 687.674C735.216 686.822 735.472 686.14 735.557 685.799C735.898 684.777 736.494 683.84 737.261 683.073C738.198 682.051 739.306 681.54 740.583 681.54C741.947 681.54 743.139 681.966 744.332 682.903C745.525 683.84 746.121 684.692 746.121 685.544C746.121 686.14 746.036 686.651 745.866 687.248C745.695 687.844 745.184 688.611 744.502 689.633C743.736 690.655 743.225 691.507 743.054 692.189C741.435 696.79 740.583 699.09 738.965 703.776C744.928 696.278 749.018 691.337 751.403 688.952C755.578 684.777 759.326 682.903 762.819 683.158C764.864 683.329 765.801 685.544 765.461 689.889C765.205 693.126 764.183 697.982 762.223 704.287C760.69 709.313 758.389 714.936 757.793 719.366C757.793 719.707 757.963 720.474 758.389 721.496C758.56 721.752 758.56 722.519 758.304 723.37Z" fill="#231F20"/>
<path d="M796.386 719.963C795.705 722.093 794.001 724.393 791.275 726.779C790.849 727.375 789.23 728.227 786.504 729.249C783.351 730.442 780.71 730.953 778.495 730.783C774.406 730.442 771.339 728.056 769.72 723.541C768.187 719.367 768.187 714.17 769.379 708.036C770.743 701.39 773.043 695.597 776.195 690.57C779.688 685.033 783.351 681.966 787.441 681.284C788.208 681.199 788.974 681.114 789.741 681.114C795.62 681.114 798.431 685.203 797.92 693.382C797.664 697.13 795.79 701.22 792.041 705.735C787.952 710.591 783.096 714.084 777.388 716.044C777.643 718.259 777.814 719.707 778.069 720.474C778.666 721.922 779.603 722.604 780.881 722.604C782.159 722.604 783.522 722.093 785.055 721.07C786.333 720.218 787.27 719.452 787.782 718.6C788.037 718.515 788.293 717.833 788.719 716.725C789.145 715.618 789.741 714.766 790.763 714.255C791.104 714.084 791.445 713.999 791.871 713.999C793.149 713.999 794.256 714.681 795.364 715.959C796.472 717.237 796.812 718.6 796.386 719.963ZM788.378 690.23C786.333 690.23 784.459 691.848 782.67 695.086C780.284 699.346 778.751 703.605 778.325 707.695C780.966 706.843 783.607 704.883 786.163 701.816C788.719 698.749 790.252 695.938 790.593 693.552C790.934 691.337 790.167 690.23 788.378 690.23Z" fill="#231F20"/>
<path d="M835.065 685.714C834.809 686.907 833.787 687.674 832.083 688.185C830.038 688.696 828.76 689.378 828.164 690.144C822.882 696.534 820.07 699.686 814.277 706.076C813.766 711.188 813.51 713.744 813.17 718.94C813.084 720.218 813.34 721.411 813.936 722.689C814.533 723.967 814.873 724.904 814.788 725.586C814.703 726.267 814.533 727.034 814.107 727.886C813.084 730.016 811.125 731.123 808.313 731.123C806.354 731.123 804.735 730.442 803.628 729.164C802.861 728.312 802.605 727.29 802.69 725.927C802.69 725.501 802.861 724.734 803.031 723.711C803.202 722.689 803.372 721.837 803.372 721.241C804.309 710.677 805.757 700.198 806.95 689.633C807.035 689.122 806.865 688.526 806.524 687.759C806.183 687.077 806.098 686.481 806.098 685.97C806.098 685.629 806.269 685.203 806.524 684.777C807.291 683.414 809.336 682.732 812.744 682.732C815.385 682.732 816.833 683.414 817.089 684.862C817.174 685.459 817.259 685.885 817.174 686.311C817.088 686.907 816.918 687.418 816.492 687.759C816.066 688.1 815.811 688.441 815.811 688.781C815.811 689.974 815.725 690.57 815.725 691.848C818.622 688.781 819.985 687.248 822.797 684.181C823.563 683.244 824.415 682.221 825.267 681.284C826.119 680.347 827.056 679.751 828.164 679.665C829.868 679.495 831.401 679.921 832.935 680.943C834.468 681.966 835.235 683.244 835.15 684.948C835.15 685.118 835.065 685.459 835.065 685.714Z" fill="#231F20"/>
<path d="M862.754 683.84C864.202 690.486 863.606 699.857 863.946 707.866C864.287 715.704 864.628 721.326 864.883 724.734C865.395 732.231 865.48 737.343 864.713 739.984C863.946 742.711 861.731 744.159 858.153 744.414C853.638 744.755 849.378 743.562 845.629 740.836C843.84 740.325 842.733 739.899 842.307 739.643C841.284 739.047 840.603 738.11 840.177 736.747C839.495 734.106 841.54 732.743 846.14 732.743C847.333 732.743 848.441 732.913 849.463 733.169C850.23 733.339 851.167 734.021 852.189 735.128C853.212 736.321 854.234 736.917 855.086 737.002C856.705 737.088 857.216 734.787 856.875 730.016C856.705 727.972 856.364 724.649 856.023 720.048C854.149 723.456 852.871 725.757 852.019 726.779C850.315 728.738 848.185 729.676 845.8 729.676C842.392 729.676 839.495 727.205 837.451 722.349C835.576 717.919 834.895 712.466 835.15 706.076C835.491 699.516 836.769 693.979 838.728 689.463C841.029 684.352 843.84 681.796 847.504 681.625C849.463 681.54 850.911 682.051 851.934 682.988C852.871 683.926 853.808 684.948 854.745 685.97C854.064 683.926 854.149 682.392 855.086 681.37C855.597 680.773 856.449 680.433 857.471 680.433C858.494 680.433 859.516 680.773 860.624 681.37C861.646 682.222 862.583 683.074 862.754 683.84ZM853.808 705.48C854.064 702.243 853.723 699.09 852.786 696.109C851.763 692.871 850.485 691.167 848.867 691.167C847.589 691.167 846.396 692.786 845.289 696.109C844.266 699.09 843.67 702.157 843.414 705.395C843.159 708.803 843.329 711.955 843.925 714.681C844.607 717.919 845.715 719.623 847.078 719.623C848.27 719.623 849.633 718.004 851.167 714.852C852.701 711.785 853.552 708.632 853.808 705.48Z" fill="#231F20"/>
<path d="M904.67 686.566C904.925 687.674 904.84 688.952 904.414 690.23C903.477 692.36 903.051 693.552 902.966 693.723C900.58 702.839 898.024 711.955 895.554 721.156C894.105 727.205 893.509 732.572 893.85 737.428C893.85 737.854 894.02 738.876 894.361 740.41C894.702 741.688 894.702 742.625 894.361 743.221C893.679 744.414 892.487 745.011 890.697 745.011C887.46 745.011 885.075 743.733 883.626 741.347C883.285 740.751 883.03 740.154 882.945 739.728C882.86 739.132 882.945 738.536 883.285 737.854C883.626 737.173 883.797 736.576 883.882 736.15C883.967 731.89 884.137 729.761 884.478 725.501C879.622 713.914 875.277 702.157 871.103 690.315C870.932 689.889 870.506 688.952 869.739 687.504C869.228 686.481 868.973 685.629 868.973 684.863C868.973 684.437 868.973 684.096 869.058 683.67C869.399 681.625 871.017 680.603 873.914 680.603C875.703 680.603 877.151 680.944 878.259 681.625C879.537 682.477 880.474 684.011 880.815 686.14C881.411 689.633 881.667 691.593 881.752 692.019C884.223 699.09 885.415 702.583 887.971 709.654C890.527 700.879 891.89 696.449 894.02 687.674C894.02 687.504 894.19 686.226 894.276 683.925C894.361 682.477 894.787 681.54 895.468 681.029C895.894 680.688 896.491 680.518 897.087 680.518C898.535 680.518 900.069 681.114 901.602 682.307C903.221 683.499 904.244 684.948 904.67 686.566Z" fill="#231F20"/>
<path d="M850.145 332.494L710.254 487.891L754.726 545.994L634.686 711.188L810.955 553.747L778.921 480.308" fill="white"/>
<path d="M850.145 332.494L710.254 487.891L754.726 545.994L634.686 711.188L810.955 553.747L778.921 480.308" stroke="#221F1F" stroke-miterlimit="10"/>
<defs>
<linearGradient id="paint0_linear_318_87" x1="157.649" y1="373.006" x2="105.662" y2="667.827" gradientUnits="userSpaceOnUse">
<stop offset="0.13" stop-color="#FFF23A"/>
<stop offset="0.15" stop-color="#FEE52C"/>
<stop offset="0.19" stop-color="#FDD41A"/>
<stop offset="0.23" stop-color="#FDC90E"/>
<stop offset="0.27" stop-color="#FDC60B"/>
<stop offset="0.61" stop-color="#FDC710"/>
<stop offset="0.94" stop-color="#D6DE27"/>
</linearGradient>
<linearGradient id="paint1_linear_318_87" x1="323.325" y1="383.172" x2="277.097" y2="645.37" gradientUnits="userSpaceOnUse">
<stop offset="0.13" stop-color="#FFF23A"/>
<stop offset="0.15" stop-color="#FEE52C"/>
<stop offset="0.19" stop-color="#FDD41A"/>
<stop offset="0.23" stop-color="#FDC90E"/>
<stop offset="0.27" stop-color="#FDC60B"/>
<stop offset="0.61" stop-color="#FDC710"/>
<stop offset="0.94" stop-color="#D6DE27"/>
</linearGradient>
<linearGradient id="paint2_linear_318_87" x1="540.381" y1="365.354" x2="487.909" y2="662.925" gradientUnits="userSpaceOnUse">
<stop offset="0.13" stop-color="#FFF23A"/>
<stop offset="0.15" stop-color="#FEE52C"/>
<stop offset="0.19" stop-color="#FDD41A"/>
<stop offset="0.23" stop-color="#FDC90E"/>
<stop offset="0.27" stop-color="#FDC60B"/>
<stop offset="0.61" stop-color="#FDC710"/>
<stop offset="0.94" stop-color="#D6DE27"/>
</linearGradient>
<linearGradient id="paint3_linear_318_87" x1="778.673" y1="378.512" x2="729.473" y2="657.537" gradientUnits="userSpaceOnUse">
<stop offset="0.13" stop-color="#FFF23A"/>
<stop offset="0.15" stop-color="#FEE52C"/>
<stop offset="0.19" stop-color="#FDD41A"/>
<stop offset="0.23" stop-color="#FDC90E"/>
<stop offset="0.27" stop-color="#FDC60B"/>
<stop offset="0.61" stop-color="#FDC710"/>
<stop offset="0.94" stop-color="#D6DE27"/>
</linearGradient>
<clipPath id="clip0_318_87">
<rect width="760.325" height="716.504" fill="white" transform="translate(86.3994 84.458)"/>
</clipPath>
</defs>
</svg>
